<svg width="255" height="131" viewBox="0 0 255 131" fill="none" xmlns="http://www.w3.org/2000/svg">
<path d="M50.8233 21.884C51.2853 21.884 51.8943 22.031 52.6503 22.325C53.4063 22.619 54.1833 23.018 54.9813 23.522C55.8213 23.984 56.5983 24.53 57.3123 25.16C58.0683 25.748 58.6773 26.357 59.1393 26.987C57.6693 27.197 55.8003 27.89 53.5323 29.066C51.3063 30.2 48.9963 31.712 46.6023 33.602C44.2083 35.45 41.8773 37.613 39.6093 40.091C37.3833 42.527 35.5143 45.131 34.0023 47.903C35.0103 46.853 36.0813 45.866 37.2153 44.942C38.3493 43.976 39.4833 43.136 40.6173 42.422C41.7933 41.666 42.9483 41.057 44.0823 40.595C45.2583 40.133 46.3713 39.881 47.4213 39.839C48.3033 40.301 49.1853 40.91 50.0673 41.666C50.9493 42.38 51.7473 43.178 52.4613 44.06C53.1753 44.9 53.7633 45.803 54.2253 46.769C54.6873 47.735 54.9183 48.701 54.9183 49.667C54.9183 50.927 54.5613 52.334 53.8473 53.888C53.1753 55.442 52.2723 57.017 51.1383 58.613C50.0043 60.167 48.7023 61.679 47.2323 63.149C45.7623 64.619 44.2503 65.942 42.6963 67.118C41.1843 68.252 39.6723 69.155 38.1603 69.827C36.6483 70.541 35.3043 70.898 34.1283 70.898C30.8523 70.226 28.1643 69.008 26.0643 67.244C24.0063 65.48 22.9773 63.128 22.9773 60.188C22.9773 57.752 23.3763 55.211 24.1743 52.565C25.0143 49.919 26.1273 47.294 27.5133 44.69C28.8993 42.086 30.5163 39.566 32.3643 37.13C34.2123 34.652 36.1653 32.405 38.2233 30.389C40.3233 28.373 42.4443 26.63 44.5863 25.16C46.7283 23.648 48.8073 22.556 50.8233 21.884ZM47.2953 42.8C44.6913 43.64 42.3183 44.774 40.1763 46.202C38.0343 47.588 36.1863 49.142 34.6323 50.864C33.1203 52.544 31.9233 54.308 31.0413 56.156C30.2013 58.004 29.7813 59.789 29.7813 61.511C29.7813 62.141 29.8863 62.792 30.0963 63.464C30.3063 64.136 30.6003 64.766 30.9783 65.354C31.3563 65.942 31.7973 66.488 32.3013 66.992C32.8053 67.454 33.3303 67.769 33.8763 67.937C35.5563 67.139 37.2993 65.921 39.1053 64.283C40.9533 62.645 42.6333 60.86 44.1453 58.928C45.6993 56.954 46.9803 54.959 47.9883 52.943C48.9963 50.885 49.5003 49.037 49.5003 47.399C49.5003 46.559 49.3323 45.719 48.9963 44.879C48.6603 44.039 48.0933 43.346 47.2953 42.8ZM66.4114 26.294C67.0414 25.874 67.9024 25.475 68.9944 25.097C70.0864 24.677 71.2624 24.32 72.5224 24.026C73.7824 23.732 75.0424 23.501 76.3024 23.333C77.6044 23.165 78.7594 23.081 79.7674 23.081C81.4894 23.081 82.9594 23.333 84.1774 23.837C85.3954 24.299 86.3824 24.929 87.1384 25.727C87.8944 26.483 88.4404 27.344 88.7764 28.31C89.1124 29.276 89.2804 30.263 89.2804 31.271C89.2804 32.321 89.0704 33.434 88.6504 34.61C88.2724 35.786 87.7054 36.962 86.9494 38.138C86.1934 39.314 85.2694 40.469 84.1774 41.603C83.1274 42.695 81.9514 43.682 80.6494 44.564C83.4214 44.9 85.4374 45.74 86.6974 47.084C87.9574 48.428 88.5874 50.234 88.5874 52.502C88.5874 54.644 88.1884 56.576 87.3904 58.298C86.5924 59.978 85.5004 61.49 84.1144 62.834C82.7704 64.136 81.2164 65.27 79.4524 66.236C77.6884 67.16 75.8194 67.916 73.8454 68.504C71.9134 69.134 69.9394 69.575 67.9234 69.827C65.9074 70.121 63.9964 70.268 62.1904 70.268C60.6364 69.932 59.4604 69.113 58.6624 67.811C57.8644 66.509 57.4654 64.913 57.4654 63.023C57.4654 62.897 57.4654 62.771 57.4654 62.645C57.5074 62.519 57.5284 62.372 57.5284 62.204C58.8304 62.624 60.5104 62.834 62.5684 62.834C64.7104 62.834 67.0204 62.582 69.4984 62.078C71.9764 61.574 74.2654 60.839 76.3654 59.873C78.4654 58.907 80.2084 57.71 81.5944 56.282C82.9804 54.854 83.6734 53.195 83.6734 51.305C83.6734 49.919 83.2114 48.785 82.2874 47.903C81.4054 46.979 79.9984 46.391 78.0664 46.139C76.8064 46.895 75.5884 47.441 74.4124 47.777C73.2784 48.071 72.4174 48.218 71.8294 48.218C70.8634 48.218 70.0444 47.798 69.3724 46.958C68.7004 46.118 68.3644 44.837 68.3644 43.115C70.2544 43.115 72.2494 42.905 74.3494 42.485C76.4914 42.065 78.4444 41.351 80.2084 40.343C81.9724 39.293 83.4424 37.928 84.6184 36.248C85.8364 34.526 86.4874 32.363 86.5714 29.759C86.3614 28.919 85.8574 28.31 85.0594 27.932C84.3034 27.554 83.3794 27.365 82.2874 27.365C81.2794 27.365 80.1664 27.512 78.9484 27.806C77.7724 28.1 76.5754 28.52 75.3574 29.066C74.1814 29.57 73.0264 30.2 71.8924 30.956C70.8004 31.67 69.8554 32.447 69.0574 33.287C68.2174 32.783 67.5454 32.027 67.0414 31.019C66.5794 29.969 66.3484 28.772 66.3484 27.428C66.3484 27.218 66.3484 27.029 66.3484 26.861C66.3484 26.693 66.3694 26.504 66.4114 26.294ZM119.123 72.662C119.039 72.704 118.955 72.725 118.871 72.725C118.787 72.725 118.619 72.725 118.367 72.725C117.779 72.725 117.086 72.62 116.288 72.41C115.532 72.242 114.776 72.011 114.02 71.717C113.306 71.465 112.676 71.171 112.13 70.835C111.626 70.499 111.311 70.205 111.185 69.953C111.143 69.365 111.122 68.756 111.122 68.126C111.122 67.496 111.122 66.887 111.122 66.299C111.122 61.595 111.458 56.681 112.13 51.557C112.844 46.433 113.999 40.889 115.595 34.925C115.763 34.337 115.931 33.602 116.099 32.72C116.309 31.796 116.519 30.809 116.729 29.759C115.721 30.557 114.524 31.838 113.138 33.602C111.752 35.324 110.282 37.382 108.728 39.776C107.216 42.128 105.683 44.732 104.129 47.588C102.617 50.402 101.231 53.279 99.9707 56.219C98.7107 59.117 97.6187 61.994 96.6947 64.85C95.8127 67.706 95.2667 70.352 95.0567 72.788C93.0407 72.2 91.6337 71.612 90.8357 71.024C90.0797 70.436 89.7017 69.722 89.7017 68.882C89.7017 68.126 89.9327 67.055 90.3947 65.669C90.8567 64.283 91.5077 62.645 92.3477 60.755C93.1877 58.865 94.2167 56.765 95.4347 54.455C96.6527 52.103 97.9967 49.583 99.4667 46.895C101.147 43.829 102.785 40.952 104.381 38.264C106.019 35.576 107.615 33.14 109.169 30.956C110.723 28.772 112.235 26.882 113.705 25.286C115.217 23.69 116.708 22.472 118.178 21.632C118.766 21.632 119.543 21.779 120.509 22.073C121.517 22.367 122.483 22.724 123.407 23.144C124.373 23.564 125.213 24.005 125.927 24.467C126.683 24.887 127.103 25.244 127.187 25.538C126.599 26.714 125.906 28.478 125.108 30.83C124.31 33.182 123.491 35.849 122.651 38.831C121.853 41.813 121.076 44.984 120.32 48.344C119.606 51.662 119.039 54.854 118.619 57.92C119.585 55.61 120.698 53.216 121.958 50.738C123.26 48.218 124.625 45.74 126.053 43.304C127.481 40.826 128.93 38.432 130.4 36.122C131.912 33.812 133.382 31.712 134.81 29.822C136.238 27.89 137.561 26.21 138.779 24.782C140.039 23.354 141.152 22.304 142.118 21.632C142.706 21.632 143.483 21.779 144.449 22.073C145.457 22.367 146.423 22.724 147.347 23.144C148.313 23.564 149.153 24.005 149.867 24.467C150.623 24.887 151.043 25.244 151.127 25.538C149.783 27.932 148.607 30.851 147.599 34.295C146.591 37.739 145.73 41.351 145.016 45.131C144.344 48.911 143.819 52.67 143.441 56.408C143.105 60.104 142.937 63.422 142.937 66.362C142.937 67.328 142.937 68.336 142.937 69.386C142.937 70.436 142.979 71.528 143.063 72.662C142.475 72.662 141.761 72.578 140.921 72.41C140.123 72.284 139.325 72.095 138.527 71.843C137.771 71.591 137.078 71.297 136.448 70.961C135.818 70.667 135.377 70.331 135.125 69.953C135.083 69.365 135.062 68.756 135.062 68.126C135.062 67.496 135.062 66.887 135.062 66.299C135.062 61.595 135.398 56.681 136.07 51.557C136.784 46.433 137.939 40.889 139.535 34.925C139.703 34.337 139.892 33.539 140.102 32.531C140.312 31.523 140.522 30.473 140.732 29.381C139.556 29.969 138.212 31.103 136.7 32.783C135.23 34.421 133.718 36.437 132.164 38.831C130.652 41.183 129.14 43.808 127.628 46.706C126.158 49.604 124.814 52.565 123.596 55.589C122.42 58.571 121.412 61.553 120.572 64.535C119.774 67.475 119.291 70.184 119.123 72.662ZM167.82 66.614C167.022 65.942 166.476 65.102 166.182 64.094C165.93 63.086 165.804 62.225 165.804 61.511C165.804 60.629 165.909 59.873 166.119 59.243C165.951 59.243 165.573 59.579 164.985 60.251C164.397 60.923 163.746 61.721 163.032 62.645C162.36 63.569 161.688 64.472 161.016 65.354C160.344 66.236 159.84 66.887 159.504 67.307C158.958 67.895 158.433 68.357 157.929 68.693C157.467 69.029 157.089 69.218 156.795 69.26C156.123 69.218 155.409 69.071 154.653 68.819C153.939 68.609 153.246 68.294 152.574 67.874C151.944 67.454 151.377 66.95 150.873 66.362C150.411 65.774 150.096 65.102 149.928 64.346C149.928 63.17 149.949 62.204 149.991 61.448C150.075 60.692 150.222 59.873 150.432 58.991C150.81 57.395 151.356 55.589 152.07 53.573C152.826 51.557 153.687 49.583 154.653 47.651C155.619 45.677 156.69 43.85 157.866 42.17C159.084 40.448 160.365 39.104 161.709 38.138C162.087 38.138 162.528 38.18 163.032 38.264C163.536 38.306 164.04 38.411 164.544 38.579C165.09 38.747 165.594 38.957 166.056 39.209C166.56 39.419 166.98 39.713 167.316 40.091C166.938 40.511 165.972 41.918 164.418 44.312C162.906 46.706 161.205 50.15 159.315 54.644C159.105 55.106 158.853 55.778 158.559 56.66C158.265 57.542 157.971 58.466 157.677 59.432C157.383 60.398 157.131 61.343 156.921 62.267C156.753 63.191 156.669 63.926 156.669 64.472C156.669 64.808 156.711 65.06 156.795 65.228C156.921 65.396 157.026 65.522 157.11 65.606C157.74 65.354 158.538 64.661 159.504 63.527C160.47 62.393 161.814 60.65 163.536 58.298C163.956 57.71 164.439 57.038 164.985 56.282C165.573 55.526 166.161 54.728 166.749 53.888C167.337 53.006 167.883 52.103 168.387 51.179C168.933 50.255 169.374 49.331 169.71 48.407C169.878 47.903 170.088 47.315 170.34 46.643C170.634 45.929 170.97 45.194 171.348 44.438C171.768 43.682 172.23 42.926 172.734 42.17C173.28 41.372 173.91 40.637 174.624 39.965C175.17 39.965 175.758 40.028 176.388 40.154C177.018 40.28 177.606 40.448 178.152 40.658C178.74 40.826 179.244 41.036 179.664 41.288C180.084 41.498 180.399 41.729 180.609 41.981C179.853 43.829 179.013 45.656 178.089 47.462C177.165 49.268 176.304 51.053 175.506 52.817C174.708 54.539 174.036 56.261 173.49 57.983C172.944 59.705 172.671 61.385 172.671 63.023C172.671 63.905 172.734 64.682 172.86 65.354C173.028 65.984 173.196 66.53 173.364 66.992C173.532 67.412 173.679 67.769 173.805 68.063C173.973 68.357 174.057 68.609 174.057 68.819C174.057 68.861 174.015 68.924 173.931 69.008C173.889 69.05 173.847 69.071 173.805 69.071C173.511 69.071 173.133 69.008 172.671 68.882C172.209 68.756 171.684 68.567 171.096 68.315C170.55 68.105 169.983 67.853 169.395 67.559C168.849 67.265 168.324 66.95 167.82 66.614ZM203.55 42.926C203.508 43.724 203.361 44.564 203.109 45.446C202.899 46.286 202.626 47.063 202.29 47.777C201.954 48.449 201.597 49.016 201.219 49.478C200.841 49.94 200.484 50.171 200.148 50.171C199.686 50.129 199.413 49.814 199.329 49.226C199.329 49.1 199.371 48.911 199.455 48.659C199.581 48.365 199.707 48.05 199.833 47.714C199.959 47.378 200.064 47.042 200.148 46.706C200.274 46.37 200.337 46.076 200.337 45.824C200.337 45.236 200.19 44.753 199.896 44.375C199.644 43.955 199.287 43.745 198.825 43.745C197.145 43.745 195.864 44.795 194.982 46.895C194.1 48.995 193.659 52.082 193.659 56.156C193.659 56.576 193.68 56.828 193.722 56.912C194.604 56.87 195.381 56.849 196.053 56.849C196.767 56.807 197.46 56.786 198.132 56.786C198.174 56.87 198.195 57.038 198.195 57.29C198.195 57.668 198.111 57.941 197.943 58.109C196.977 58.319 196.2 58.508 195.612 58.676C195.066 58.802 194.646 58.928 194.352 59.054C194.058 59.18 193.869 59.327 193.785 59.495C193.743 59.621 193.722 59.81 193.722 60.062C193.722 60.398 193.722 60.734 193.722 61.07C193.764 61.406 193.785 61.826 193.785 62.33C193.785 65.858 192.819 68.693 190.887 70.835C188.997 72.977 186.351 74.216 182.949 74.552C182.361 74.51 181.752 74.342 181.122 74.048C180.492 73.754 179.883 73.376 179.295 72.914C178.749 72.452 178.266 71.927 177.846 71.339C177.426 70.793 177.132 70.226 176.964 69.638C176.964 68.042 177.3 66.53 177.972 65.102C178.644 63.632 179.547 62.351 180.681 61.259C181.857 60.125 183.222 59.222 184.776 58.55C186.372 57.836 188.094 57.416 189.942 57.29C189.942 56.24 189.837 55.211 189.627 54.203C189.417 53.195 189.186 52.229 188.934 51.305C188.724 50.339 188.514 49.415 188.304 48.533C188.094 47.609 187.989 46.706 187.989 45.824C187.989 44.69 188.22 43.577 188.682 42.485C189.144 41.351 189.753 40.322 190.509 39.398C191.265 38.432 192.147 37.613 193.155 36.941C194.163 36.269 195.213 35.807 196.305 35.555C196.767 35.681 197.376 36.059 198.132 36.689C198.93 37.277 199.707 37.949 200.463 38.705C201.219 39.461 201.891 40.238 202.479 41.036C203.067 41.792 203.424 42.422 203.55 42.926ZM182.76 71.654C183.768 71.234 184.713 70.625 185.595 69.827C186.519 69.029 187.317 68.126 187.989 67.118C188.661 66.11 189.186 65.039 189.564 63.905C189.984 62.771 190.194 61.658 190.194 60.566C189.354 60.692 188.43 61.091 187.422 61.763C186.414 62.393 185.469 63.17 184.587 64.094C183.705 64.976 182.97 65.9 182.382 66.866C181.794 67.832 181.5 68.672 181.5 69.386C181.5 70.31 181.92 71.066 182.76 71.654ZM203.657 63.779C203.657 63.401 203.678 62.939 203.72 62.393C203.804 61.805 203.93 61.049 204.098 60.125C204.266 59.159 204.476 58.004 204.728 56.66C205.022 55.316 205.379 53.699 205.799 51.809C205.883 51.389 206.072 50.717 206.366 49.793C206.66 48.869 207.038 47.903 207.5 46.895C208.004 45.845 208.592 44.837 209.264 43.871C209.978 42.905 210.818 42.191 211.784 41.729C212.498 41.897 213.443 42.338 214.619 43.052C215.795 43.724 216.803 44.669 217.643 45.887C216.677 46.979 215.858 48.071 215.186 49.163C214.556 50.255 213.968 51.389 213.422 52.565C212.918 53.741 212.435 54.959 211.973 56.219C211.553 57.479 211.07 58.802 210.524 60.188C210.062 61.364 209.642 62.582 209.264 63.842C208.886 65.06 208.676 66.131 208.634 67.055C208.634 67.811 208.613 68.336 208.571 68.63C208.571 68.966 208.466 69.134 208.256 69.134C208.088 69.134 207.752 69.029 207.248 68.819C206.744 68.609 206.219 68.294 205.673 67.874C205.169 67.412 204.707 66.845 204.287 66.173C203.867 65.501 203.657 64.703 203.657 63.779ZM215.69 36.437C215.69 36.185 215.753 35.807 215.879 35.303C215.669 35.093 215.48 34.778 215.312 34.358C215.186 33.938 215.123 33.56 215.123 33.224C215.123 32.846 215.165 32.342 215.249 31.712C215.375 31.04 215.522 30.326 215.69 29.57C215.858 28.814 216.068 28.037 216.32 27.239C216.572 26.399 216.824 25.643 217.076 24.971C217.58 24.971 218.189 25.118 218.903 25.412C219.659 25.664 220.415 26.021 221.171 26.483C221.927 26.903 222.62 27.386 223.25 27.932C223.88 28.436 224.363 28.919 224.699 29.381C224.237 29.843 223.628 30.494 222.872 31.334C222.116 32.132 221.381 32.993 220.667 33.917C219.953 34.799 219.302 35.639 218.714 36.437C218.126 37.235 217.748 37.802 217.58 38.138C217.076 38.054 216.635 37.844 216.257 37.508C215.879 37.13 215.69 36.773 215.69 36.437ZM218.861 56.912C218.861 54.518 219.344 52.208 220.31 49.982C221.318 47.714 222.62 45.719 224.216 43.997C225.854 42.233 227.702 40.826 229.76 39.776C231.86 38.684 234.023 38.138 236.249 38.138C238.433 38.138 240.113 38.684 241.289 39.776C242.465 40.868 243.053 42.422 243.053 44.438C243.053 45.404 242.906 46.349 242.612 47.273C242.36 48.155 242.003 48.953 241.541 49.667C241.121 50.381 240.617 50.969 240.029 51.431C239.441 51.851 238.853 52.061 238.265 52.061C237.761 52.061 237.236 51.914 236.69 51.62C236.186 51.284 235.766 50.864 235.43 50.36C238.244 47.798 239.651 45.467 239.651 43.367C239.651 42.149 239.168 41.54 238.202 41.54C237.362 41.54 236.312 41.939 235.052 42.737C233.792 43.535 232.574 44.585 231.398 45.887C229.592 47.903 228.206 50.15 227.24 52.628C226.316 55.064 225.854 57.626 225.854 60.314C225.854 63.716 226.61 65.753 228.122 66.425C228.752 66.341 229.487 66.152 230.327 65.858C231.167 65.564 232.07 65.186 233.036 64.724C234.002 64.22 234.989 63.653 235.997 63.023C237.047 62.393 238.055 61.721 239.021 61.007C239.189 61.133 239.336 61.322 239.462 61.574C239.588 61.826 239.651 62.057 239.651 62.267C238.937 63.149 238.118 64.01 237.194 64.85C236.27 65.69 235.304 66.467 234.296 67.181C233.288 67.853 232.301 68.42 231.335 68.882C230.411 69.386 229.592 69.701 228.878 69.827C227.492 69.701 226.19 69.26 224.972 68.504C223.754 67.79 222.683 66.845 221.759 65.669C220.877 64.493 220.163 63.149 219.617 61.637C219.113 60.125 218.861 58.55 218.861 56.912ZM25.7489 94.6C25.7489 95.896 26.0369 97.04 26.6129 98.032C27.2049 99.024 27.9729 99.8 28.9169 100.36C29.8609 100.92 30.8849 101.2 31.9889 101.2C32.7889 101.2 33.5169 101.096 34.1729 100.888C34.8449 100.68 35.4529 100.392 35.9969 100.024C36.5409 99.64 37.0049 99.2 37.3889 98.704V101.392C36.6849 102.016 35.9169 102.48 35.0849 102.784C34.2529 103.088 33.2209 103.24 31.9889 103.24C30.8209 103.24 29.7249 103.032 28.7009 102.616C27.6929 102.184 26.8049 101.584 26.0369 100.816C25.2689 100.032 24.6689 99.112 24.2369 98.056C23.8049 97 23.5889 95.848 23.5889 94.6C23.5889 93.352 23.8049 92.2 24.2369 91.144C24.6689 90.088 25.2689 89.176 26.0369 88.408C26.8049 87.624 27.6929 87.024 28.7009 86.608C29.7249 86.176 30.8209 85.96 31.9889 85.96C33.2209 85.96 34.2529 86.112 35.0849 86.416C35.9169 86.72 36.6849 87.184 37.3889 87.808V90.496C37.0049 90 36.5409 89.568 35.9969 89.2C35.4529 88.816 34.8449 88.52 34.1729 88.312C33.5169 88.104 32.7889 88 31.9889 88C30.8849 88 29.8609 88.28 28.9169 88.84C27.9729 89.4 27.2049 90.176 26.6129 91.168C26.0369 92.144 25.7489 93.288 25.7489 94.6ZM39.1786 91.96H45.6586V93.76H39.1786V91.96ZM41.4586 92.44H43.3786V103H41.4586V92.44ZM57.0717 91.96L49.8717 108.28H47.7117L50.7357 101.44L46.5117 91.96H48.7917L52.2957 100.6L51.5037 100.504L54.9117 91.96H57.0717ZM63.4523 95.272L60.2123 102.28H58.0523L63.4523 91.12L68.8523 102.28H66.6923L63.4523 95.272ZM68.3723 103H58.6523V105.16H56.6123V101.2H70.2923V105.16H68.3723V103ZM82.4189 93.88L73.2989 103.84L73.4189 101.08L82.5389 91.12L82.4189 93.88ZM75.2189 91.96V101.2L73.2989 103.84V91.96H75.2189ZM82.5389 91.12V103H80.6189V93.76L82.5389 91.12ZM87.841 103H85.729L89.809 97.24H91.921L87.841 103ZM94.849 103H92.929V91.96H94.849V103ZM93.721 96.904V98.584H90.289C89.537 98.584 88.849 98.472 88.225 98.248C87.617 98.024 87.137 97.672 86.785 97.192C86.433 96.696 86.257 96.056 86.257 95.272C86.257 94.472 86.433 93.832 86.785 93.352C87.137 92.872 87.617 92.52 88.225 92.296C88.849 92.072 89.537 91.96 90.289 91.96H93.721V93.64H90.289C89.825 93.64 89.433 93.704 89.113 93.832C88.809 93.944 88.577 94.12 88.417 94.36C88.257 94.6 88.177 94.904 88.177 95.272C88.177 95.64 88.257 95.944 88.417 96.184C88.577 96.424 88.809 96.608 89.113 96.736C89.433 96.848 89.825 96.904 90.289 96.904H93.721ZM108.966 97.48V96.28C109.702 96.28 110.23 96.144 110.55 95.872C110.87 95.584 111.03 95.24 111.03 94.84C111.03 94.408 110.87 94.072 110.55 93.832C110.23 93.576 109.782 93.448 109.206 93.448C108.726 93.448 108.326 93.544 108.006 93.736C107.702 93.912 107.478 94.136 107.334 94.408C107.19 94.664 107.118 94.92 107.118 95.176H105.174C105.174 94.552 105.35 93.976 105.702 93.448C106.054 92.92 106.534 92.504 107.142 92.2C107.75 91.88 108.438 91.72 109.206 91.72C109.926 91.72 110.574 91.856 111.15 92.128C111.726 92.4 112.174 92.76 112.494 93.208C112.83 93.656 112.998 94.152 112.998 94.696C112.998 95.496 112.638 96.16 111.918 96.688C111.214 97.216 110.23 97.48 108.966 97.48ZM109.158 103.24C107.862 103.24 106.822 102.888 106.038 102.184C105.27 101.48 104.822 100.592 104.694 99.52H106.638C106.75 100.048 106.99 100.52 107.358 100.936C107.726 101.352 108.326 101.56 109.158 101.56C109.67 101.56 110.102 101.488 110.454 101.344C110.822 101.2 111.102 100.992 111.294 100.72C111.486 100.448 111.582 100.136 111.582 99.784C111.582 99.4 111.478 99.072 111.27 98.8C111.078 98.528 110.782 98.32 110.382 98.176C109.998 98.032 109.526 97.96 108.966 97.96V96.76C110.342 96.76 111.438 97 112.254 97.48C113.07 97.96 113.478 98.72 113.478 99.76C113.478 100.48 113.278 101.104 112.878 101.632C112.494 102.144 111.974 102.544 111.318 102.832C110.662 103.104 109.942 103.24 109.158 103.24ZM117.479 97.24H120.671C121.439 97.24 122.127 97.32 122.735 97.48C123.343 97.64 123.823 97.92 124.175 98.32C124.527 98.72 124.703 99.28 124.703 100C124.703 100.832 124.423 101.544 123.863 102.136C123.319 102.712 122.415 103 121.151 103H117.479V101.32H120.671C121.391 101.32 121.919 101.168 122.255 100.864C122.607 100.56 122.783 100.192 122.783 99.76C122.783 99.536 122.735 99.336 122.639 99.16C122.559 98.984 122.431 98.824 122.255 98.68C122.095 98.536 121.879 98.432 121.607 98.368C121.351 98.288 121.039 98.248 120.671 98.248H117.479V97.24ZM117.479 97.72V96.592H120.431C120.719 96.592 120.975 96.56 121.199 96.496C121.439 96.416 121.639 96.304 121.799 96.16C121.959 96.016 122.079 95.856 122.159 95.68C122.255 95.488 122.303 95.288 122.303 95.08C122.303 94.648 122.135 94.304 121.799 94.048C121.463 93.776 121.007 93.64 120.431 93.64H117.479V91.96H120.431C121.119 91.96 121.743 92.064 122.303 92.272C122.879 92.464 123.343 92.784 123.695 93.232C124.047 93.664 124.223 94.24 124.223 94.96C124.223 95.584 124.047 96.104 123.695 96.52C123.343 96.92 122.879 97.224 122.303 97.432C121.743 97.624 121.119 97.72 120.431 97.72H117.479ZM116.351 91.96H118.271V103H116.351V91.96ZM135.869 91.96L128.669 108.28H126.509L129.533 101.44L125.309 91.96H127.589L131.093 100.6L130.301 100.504L133.709 91.96H135.869ZM137.559 91.96H139.479V103H137.559V91.96ZM143.559 91.96H145.959L141.159 96.52L146.439 103H144.039L138.759 96.52L143.559 91.96ZM146.938 97.48C146.938 96.36 147.186 95.368 147.682 94.504C148.194 93.64 148.882 92.96 149.746 92.464C150.61 91.968 151.578 91.72 152.65 91.72C153.738 91.72 154.706 91.968 155.554 92.464C156.418 92.96 157.098 93.64 157.594 94.504C158.106 95.368 158.362 96.36 158.362 97.48C158.362 98.584 158.106 99.576 157.594 100.456C157.098 101.32 156.418 102 155.554 102.496C154.706 102.992 153.738 103.24 152.65 103.24C151.578 103.24 150.61 102.992 149.746 102.496C148.882 102 148.194 101.32 147.682 100.456C147.186 99.576 146.938 98.584 146.938 97.48ZM148.882 97.48C148.882 98.248 149.042 98.928 149.362 99.52C149.698 100.112 150.146 100.584 150.706 100.936C151.282 101.272 151.93 101.44 152.65 101.44C153.37 101.44 154.01 101.272 154.57 100.936C155.146 100.584 155.594 100.112 155.914 99.52C156.25 98.928 156.418 98.248 156.418 97.48C156.418 96.712 156.25 96.032 155.914 95.44C155.594 94.832 155.146 94.36 154.57 94.024C154.01 93.688 153.37 93.52 152.65 93.52C151.93 93.52 151.282 93.688 150.706 94.024C150.146 94.36 149.698 94.832 149.362 95.44C149.042 96.032 148.882 96.712 148.882 97.48ZM164.911 97.48V96.28C165.647 96.28 166.175 96.144 166.495 95.872C166.815 95.584 166.975 95.24 166.975 94.84C166.975 94.408 166.815 94.072 166.495 93.832C166.175 93.576 165.727 93.448 165.151 93.448C164.671 93.448 164.271 93.544 163.951 93.736C163.647 93.912 163.423 94.136 163.279 94.408C163.135 94.664 163.063 94.92 163.063 95.176H161.119C161.119 94.552 161.295 93.976 161.647 93.448C161.999 92.92 162.479 92.504 163.087 92.2C163.695 91.88 164.383 91.72 165.151 91.72C165.871 91.72 166.519 91.856 167.095 92.128C167.671 92.4 168.119 92.76 168.439 93.208C168.775 93.656 168.943 94.152 168.943 94.696C168.943 95.496 168.583 96.16 167.863 96.688C167.159 97.216 166.175 97.48 164.911 97.48ZM165.103 103.24C163.807 103.24 162.767 102.888 161.983 102.184C161.215 101.48 160.767 100.592 160.639 99.52H162.583C162.695 100.048 162.935 100.52 163.303 100.936C163.671 101.352 164.271 101.56 165.103 101.56C165.615 101.56 166.047 101.488 166.399 101.344C166.767 101.2 167.047 100.992 167.239 100.72C167.431 100.448 167.527 100.136 167.527 99.784C167.527 99.4 167.423 99.072 167.215 98.8C167.023 98.528 166.727 98.32 166.327 98.176C165.943 98.032 165.471 97.96 164.911 97.96V96.76C166.287 96.76 167.383 97 168.199 97.48C169.015 97.96 169.423 98.72 169.423 99.76C169.423 100.48 169.223 101.104 168.823 101.632C168.439 102.144 167.919 102.544 167.263 102.832C166.607 103.104 165.887 103.24 165.103 103.24ZM173.16 99.76C173.16 100.144 173.264 100.472 173.472 100.744C173.68 101 173.96 101.2 174.312 101.344C174.664 101.472 175.056 101.536 175.488 101.536C176.128 101.536 176.696 101.44 177.192 101.248C177.688 101.056 178.072 100.752 178.344 100.336C178.632 99.92 178.776 99.368 178.776 98.68L179.16 99.88C179.16 100.584 178.968 101.192 178.584 101.704C178.216 102.2 177.72 102.584 177.096 102.856C176.472 103.112 175.776 103.24 175.008 103.24C174.32 103.24 173.688 103.112 173.112 102.856C172.536 102.6 172.072 102.224 171.72 101.728C171.384 101.216 171.216 100.584 171.216 99.832C171.216 99.048 171.408 98.384 171.792 97.84C172.176 97.296 172.72 96.88 173.424 96.592C174.128 96.288 174.96 96.136 175.92 96.136C176.624 96.136 177.224 96.232 177.72 96.424C178.232 96.6 178.64 96.808 178.944 97.048C179.248 97.272 179.456 97.456 179.568 97.6V98.728C179.024 98.344 178.472 98.064 177.912 97.888C177.352 97.696 176.72 97.6 176.016 97.6C175.376 97.6 174.84 97.688 174.408 97.864C173.992 98.04 173.68 98.288 173.472 98.608C173.264 98.928 173.16 99.312 173.16 99.76ZM173.16 94.552L172.224 93.088C172.64 92.784 173.2 92.48 173.904 92.176C174.608 91.872 175.456 91.72 176.448 91.72C177.296 91.72 178.032 91.856 178.656 92.128C179.296 92.384 179.792 92.76 180.144 93.256C180.512 93.752 180.696 94.36 180.696 95.08V103H178.776V95.08C178.776 94.52 178.536 94.104 178.056 93.832C177.592 93.544 177.056 93.4 176.448 93.4C175.92 93.4 175.44 93.472 175.008 93.616C174.576 93.744 174.2 93.904 173.88 94.096C173.576 94.272 173.336 94.424 173.16 94.552ZM192.945 91.96V103H191.025V93.76H185.865V103H183.945V91.96H192.945ZM205.794 93.88L196.674 103.84L196.794 101.08L205.914 91.12L205.794 93.88ZM198.594 91.96V101.2L196.674 103.84V91.96H198.594ZM205.914 91.12V103H203.994V93.76L205.914 91.12ZM210.496 97.48C210.496 98.248 210.656 98.928 210.976 99.52C211.312 100.112 211.76 100.584 212.32 100.936C212.896 101.272 213.544 101.44 214.264 101.44C214.856 101.44 215.408 101.352 215.92 101.176C216.448 100.984 216.904 100.736 217.288 100.432C217.672 100.112 217.944 99.776 218.104 99.424V101.824C217.72 102.272 217.168 102.624 216.448 102.88C215.744 103.12 215.016 103.24 214.264 103.24C213.192 103.24 212.224 102.992 211.36 102.496C210.496 102 209.808 101.32 209.296 100.456C208.8 99.576 208.552 98.584 208.552 97.48C208.552 96.36 208.8 95.368 209.296 94.504C209.808 93.64 210.496 92.96 211.36 92.464C212.224 91.968 213.192 91.72 214.264 91.72C215.016 91.72 215.744 91.848 216.448 92.104C217.168 92.344 217.72 92.688 218.104 93.136V95.536C217.944 95.168 217.672 94.832 217.288 94.528C216.904 94.224 216.448 93.984 215.92 93.808C215.408 93.616 214.856 93.52 214.264 93.52C213.544 93.52 212.896 93.688 212.32 94.024C211.76 94.36 211.312 94.832 210.976 95.44C210.656 96.032 210.496 96.712 210.496 97.48ZM230.333 93.88L221.213 103.84L221.333 101.08L230.453 91.12L230.333 93.88ZM223.133 91.96V101.2L221.213 103.84V91.96H223.133ZM230.453 91.12V103H228.533V93.76L230.453 91.12Z" fill="black" fill-opacity="0.77"/>
<line x1="11.9957" y1="80" x2="244.996" y2="79" stroke="black" stroke-width="2"/>
</svg>
